<svg width="168" height="168" viewBox="0 0 168 168" fill="none" xmlns="http://www.w3.org/2000/svg">
<rect width="168" height="168" rx="16" fill="#F4F4F4"/>
<path d="M133.41 107.241L117.207 62.632L117.196 62.6025H116.876L113.54 71.7697L107.466 88.4584L107.452 88.4453C105.346 86.5877 102.376 85.4264 98.6356 84.994L97.4947 84.8763L98.6265 84.7311C104.795 83.6226 108.942 79.7268 108.942 75.0331C108.942 68.5965 102.888 64.1038 94.216 64.1038H76.1731V64.4297H81.416V97.6885L68.6829 62.632L68.6717 62.6025H68.352L65.0154 71.7697L52.1464 107.127L52.0672 107.136C51.8472 107.163 51.6297 107.184 51.4145 107.201C51.0907 107.226 50.7689 107.241 50.4461 107.241H37.4431L62.1601 64.4297L62.3438 64.1079H32.1139V77.3515H32.4347C32.4915 70.9007 36.2483 64.4297 44.5486 64.4297H54.5622L29.6585 107.562H63.2086V94.8737H62.8879C62.8442 100.496 59.6569 105.836 52.726 107.042L52.5057 107.08L57.7841 92.5715H72.5706L77.8987 107.241H72.6427V107.562H93.272V107.241H87.9936V85.1128H94.0841C100.282 85.1128 103.837 87.8819 103.837 92.7075V96.6328C103.837 97.0652 103.866 97.6976 103.899 98.2265V98.2458L100.625 107.239H96.3487V107.56H105.201V107.239H100.97L103.952 99.0497C103.958 99.1289 103.961 99.1766 103.961 99.1766L104.043 99.9145L104.122 100.403C104.619 103.423 105.775 105.643 107.554 107.001L107.81 107.187C109.162 108.126 110.842 108.603 112.806 108.603C115.408 108.603 117.142 107.954 118.575 106.427L118.387 106.251C117.067 107.469 115.96 107.962 114.572 107.962C112.208 107.962 110.971 105.094 110.971 102.266V96.7668C110.983 95.4021 110.77 94.0449 110.338 92.7502L110.28 92.5796V92.5735H121.095L126.423 107.243H121.167V107.564H139.019V107.243L133.41 107.241ZM57.9018 92.2508L65.186 72.2386L72.4539 92.2508H57.9018ZM87.9967 84.791V64.4297H92.6457C98.8559 64.4297 102.135 68.1215 102.135 75.1021C102.135 82.5264 100.253 84.791 94.0841 84.791H87.9967ZM110.154 92.2508L110.122 92.1716C109.642 91.001 108.942 89.9329 108.061 89.0249L107.756 88.7203L107.724 88.6899L113.706 72.2386L120.974 92.2508H110.154Z" fill="#13101E"/>
</svg>
