<svg width="168" height="168" viewBox="0 0 168 168" fill="none" xmlns="http://www.w3.org/2000/svg">
<rect width="168" height="168" rx="16" fill="#F4F4F4"/>
<path d="M99.2648 66.1342C102.018 64.7821 103.382 64.9595 103.413 66.33C103.45 68.1104 103.186 70.4779 102.997 72.191C101.975 81.5018 100.268 89.11 100.14 98.6698C104.636 87.0287 108.405 78.9378 113.262 68.9729C114.804 65.7977 115.789 66.3912 117.055 65.8283C121.987 63.632 122.17 64.9779 121.528 67.6637C119.136 77.6115 113.011 108.932 112.076 113.755C111.806 115.151 110.289 114.559 109.898 114.014C108.142 111.585 106.16 111.547 106.38 109.932C107.481 101.891 111.445 81.7165 112.479 76.9629C107.212 87.7622 101.749 101.263 98.9404 108.917C98.3469 110.543 97.264 110.424 96.5912 109.234C95.6428 107.563 93.8014 106.711 93.4954 104.736C92.535 98.4594 94.5967 86.4952 94.8841 78.9261C92.015 87.1945 87.2002 103.247 85.0894 110.5C84.2208 113.501 81.3208 113.011 82.0916 110.086C85.2973 97.9148 92.2046 76.3878 95.1901 68.6487C95.8939 66.8254 97.7353 66.8866 99.2648 66.1342Z" fill="#B00020"/>
<path d="M81.7798 64.6415C80.85 64.4151 78.1519 65.8712 76.4939 66.1587C75.9678 66.2505 75.4661 66.8072 75.2887 67.2049C72.6334 73.3045 70.2536 79.1189 68.1919 84.4157C65.5551 84.866 62.4718 85.4588 59.0212 86.2339C61.4928 79.8939 63.989 73.6408 66.4239 67.627C67.6229 64.6658 64.4662 64.3845 63.2425 67.3822C61.6518 71.2794 58.6724 78.5811 55.3748 87.0917C52.9521 87.6857 50.3827 88.3647 47.6969 89.1406C45.7452 89.704 45.6658 90.224 46.5101 91.3944C46.975 92.0461 47.9355 91.9804 48.3759 92.4448C49.5139 93.6482 50.2053 95.0877 52.2424 95.3056C50.4254 100.166 48.6084 105.179 46.9627 110.005C45.9288 113.035 48.8714 113.654 50.0033 110.448C51.8264 105.281 53.7475 100.05 55.7235 94.8356C57.3692 94.4532 61.3519 93.5954 65.0288 92.7976C62.1106 100.796 60.1894 106.871 59.4615 109.827C59.327 110.396 59.5533 110.712 59.6756 110.944C60.6606 112.377 61.5967 112.436 62.8631 114.208C63.2058 114.692 64.356 114.952 64.7474 113.762C67.4515 105.594 70.2352 97.9305 72.8291 91.0601C73.9058 90.8246 75.8452 90.3565 77.032 88.5854C79.1426 85.4419 79.7483 86.0795 80.2562 85.1238C80.8925 83.9242 80.4703 82.7978 78.219 83.0761C78.219 83.0761 77.3686 83.1367 75.7963 83.3159C78.2923 76.8891 80.4764 71.438 82.0488 67.2841C82.5874 65.8773 82.6547 64.8495 81.7798 64.6415Z" fill="#B00020"/>
<path d="M78.0969 106.325C78.6781 107.794 80.4952 107.349 79.8038 105.576C79.1002 103.77 77.3505 98.3331 76.8916 96.5815C76.2676 94.2212 78.9717 94.8667 77.6013 96.4097C76.4267 97.7366 75.6435 98.2682 73.4717 100.791C71.3733 103.227 71.9423 106.387 74.1876 107.085C76.7203 107.873 78.9534 105.082 80.336 103.035C81.6758 101.052 80.3788 99.889 79.0268 101.061C78.158 101.815 77.1547 102.972 76.139 103.596C75.3131 104.099 74.6646 103.559 75.7659 102.043C77.0445 100.288 78.4761 98.8172 79.5406 97.1586C81.7125 93.7785 77.4177 91.83 75.5701 94.0256C74.5789 95.196 74.8298 96.345 75.099 97.3311C75.5335 98.9107 77.1486 103.953 78.0969 106.325Z" fill="#B00020"/>
</svg>
