<svg width="168" height="168" viewBox="0 0 168 168" fill="none" xmlns="http://www.w3.org/2000/svg">
<rect width="168" height="168" rx="16" fill="#F4F4F4"/>
<path fill-rule="evenodd" clip-rule="evenodd" d="M49.7301 115.99C49.7176 116.014 49.6933 116.063 49.6813 116.1C48.364 118.588 45.7775 120.284 42.8255 120.284C38.5437 120.284 35.0308 116.697 35.0308 112.269C35.0308 107.865 38.5437 104.254 42.8255 104.254C45.7899 104.254 48.3884 105.987 49.6933 108.512C49.7301 108.561 49.742 108.585 49.7788 108.658C49.7913 108.671 47.2903 110.476 47.266 110.439C47.2535 110.391 47.2416 110.354 47.2172 110.329C46.4971 108.536 44.7899 107.341 42.8255 107.378C40.2027 107.402 38.0434 109.573 38.0434 112.269C38.0434 114.989 40.2027 117.185 42.8255 117.185C44.7287 117.185 46.3877 116.014 47.1435 114.355C47.1804 114.294 47.1929 114.245 47.2172 114.197L49.7301 115.99Z" fill="#13101E"/>
<path fill-rule="evenodd" clip-rule="evenodd" d="M52.9625 104.401H55.9633V110.001H63.8441V104.401H66.8692V119.979H63.8441V113.136H55.9633V119.979H52.9625V104.401Z" fill="#13101E"/>
<path fill-rule="evenodd" clip-rule="evenodd" d="M109.223 119.979V104.401H120.117V107.548H112.261V110.659H119.519V113.77H112.261V116.88H121.227V119.979H109.223Z" fill="#13101E"/>
<path fill-rule="evenodd" clip-rule="evenodd" d="M125.484 119.979V104.401H128.534V116.88H137V119.979H125.484Z" fill="#13101E"/>
<path fill-rule="evenodd" clip-rule="evenodd" d="M92.8526 119.979H92.7552H89.8031V104.401H90.0224H94.0357L100.709 113.77V104.401H103.734V119.979H101.318L92.8526 108.232V119.979Z" fill="#13101E"/>
<path fill-rule="evenodd" clip-rule="evenodd" d="M78.3237 107.548L75.6646 113.77H81.1051L78.3237 107.548ZM74.298 116.88L72.9075 119.979H69.2966L76.2012 104.401H80.4218L87.3751 119.979H83.7642L82.3618 116.88H74.298Z" fill="#13101E"/>
<path fill-rule="evenodd" clip-rule="evenodd" d="M87.5823 98.4015C84.3104 100.293 80.3963 101.418 76.2259 101.418C67.6932 101.418 60.2195 96.7659 56.1774 89.8682C56.1774 89.8362 56.1461 89.8362 56.1461 89.8042C56.1461 89.7721 56.1133 89.7721 56.1133 89.7401L59.3853 88.0405L62.6572 86.3713C62.69 86.4049 62.7228 86.4354 62.754 86.501C65.5447 91.0232 70.5493 94.0395 76.2259 94.0395C78.0557 94.0395 79.8197 93.7191 81.3916 93.2049C77.8947 89.1954 75.7775 83.9348 75.7775 78.1921C75.7775 72.4829 77.8634 67.2223 81.3275 63.1793C79.7556 62.6346 78.0229 62.3462 76.2259 62.3462C70.6133 62.3462 65.4165 65.361 62.5618 70.2051C62.529 70.2371 62.529 70.2707 62.529 70.3012L55.9539 66.9019C55.9851 66.8379 56.0179 66.7738 56.0492 66.7402C60.0601 59.7159 67.6291 55 76.2259 55C80.3963 55 84.3104 56.1229 87.5823 58.0483C90.8541 56.1229 94.7683 55 98.9371 55C107.534 55 115.105 59.7159 119.114 66.7402C119.146 66.7738 119.178 66.8379 119.21 66.9019L112.634 70.3012C112.634 70.2707 112.634 70.2371 112.602 70.2051C109.748 65.361 104.551 62.3462 98.9371 62.3462C97.1417 62.3462 95.4089 62.6346 93.837 63.1793C97.3011 67.2223 99.387 72.4829 99.387 78.1921C99.387 83.9348 97.2698 89.1954 93.7729 93.2049C95.3449 93.7191 97.1089 94.0395 98.9371 94.0395C104.615 94.0395 109.62 91.0232 112.41 86.501C112.442 86.4354 112.474 86.4049 112.506 86.3713L115.777 88.0405L119.05 89.7401C119.05 89.7721 119.018 89.7721 119.018 89.8042C119.018 89.8362 118.986 89.8362 118.986 89.8682C114.944 96.7659 107.47 101.418 98.9371 101.418C94.7683 101.418 90.8541 100.293 87.5823 98.4015ZM87.5823 89.1954C84.887 86.3408 83.1556 82.4595 83.1556 78.1921C83.1556 73.9903 84.7916 70.173 87.5823 67.3185C90.3729 70.173 92.0089 73.9903 92.0089 78.1921C92.0089 82.4595 90.276 86.3408 87.5823 89.1954Z" fill="#13101E"/>
</svg>
