<svg width="168" height="168" viewBox="0 0 168 168" fill="none" xmlns="http://www.w3.org/2000/svg">
<rect width="168" height="168" rx="16" fill="#F4F4F4"/>
<path d="M29.9051 97.3226H28.2767C28.1408 97.3226 27.8009 97.3226 27.8009 97.1191C27.8009 96.9842 27.8691 96.9155 28.0726 96.8474C29.5672 96.3716 29.9045 95.5574 29.9045 94.4048V82.2466C29.9045 81.1596 29.5646 80.3449 28.0726 79.804C27.8691 79.804 27.8009 79.6681 27.8009 79.6005C27.8009 79.3292 28.1408 79.3969 28.2767 79.3969H41.7214C44.7771 79.3969 47.2903 81.8395 47.2903 84.8972C47.2903 87.955 44.7771 90.3945 41.7214 90.3945H34.9306V94.5371C34.9988 95.6235 35.3377 96.369 36.7625 96.8458C36.966 96.914 37.0337 96.9822 37.0337 97.1176C37.0337 97.3211 36.6943 97.3211 36.5584 97.3211H29.9051V97.3226ZM130.141 90.7354H133.332L130.141 85.3023L129.8 84.7588L126.951 90.7354H130.141ZM130.141 79.3272H132.314L141.413 95.3564C141.685 95.7635 142.024 96.1706 142.431 96.3741C142.77 96.6464 143.177 96.715 143.517 96.8499C143.653 96.9186 143.789 96.9868 143.789 97.1221C143.789 97.3257 143.449 97.3257 143.313 97.3257H135.232C135.097 97.3257 134.688 97.3257 134.688 97.1221C134.688 96.9868 134.824 96.9186 134.961 96.8499C135.368 96.715 135.639 96.511 135.775 96.1039C135.912 95.6276 135.775 95.3574 135.436 94.7447C134.975 93.7647 134.5 92.7914 134.011 91.8249H126.405L126.338 91.9602C126.269 92.2325 125.727 93.1815 125.32 94.2018C124.778 95.2882 124.574 95.5594 124.71 96.1029C124.778 96.51 125.117 96.7135 125.524 96.8494C125.661 96.9181 125.727 96.9863 125.727 97.1211C125.727 97.3247 125.387 97.3247 125.252 97.3247H121.516C121.381 97.3247 121.04 97.3247 121.04 97.1211C121.04 96.9863 121.109 96.9176 121.312 96.8494C121.652 96.714 122.059 96.6458 122.398 96.3736C122.806 96.1701 123.146 95.763 123.416 95.3559L123.892 94.3381L129.053 83.537L128.305 82.2466C127.628 81.1596 126.948 80.4808 126.201 80.0732C125.861 79.8697 125.521 79.8697 125.183 79.7338C124.979 79.6656 124.911 79.5974 124.979 79.4615C124.979 79.3257 125.115 79.3939 125.183 79.3257H130.141L130.141 79.3272ZM109.837 97.2539H110.109C122.605 97.2539 122.47 79.3929 110.109 79.3929H99.8548C99.6513 79.3929 99.3124 79.3247 99.3124 79.5964C99.3124 79.6641 99.4478 79.7999 99.5831 79.7999C101.077 80.2752 101.415 81.0904 101.484 82.1097V94.5407C101.417 95.6266 101.077 96.3726 99.5831 96.8489C99.4478 96.9176 99.3124 96.9858 99.3124 97.1211C99.3124 97.3247 99.6518 97.3247 99.8548 97.3247H106.442V97.256H109.837V97.2539ZM109.837 80.6843C110.755 80.688 111.634 81.054 112.283 81.7026C112.932 82.3513 113.298 83.2301 113.302 84.1477V92.433C113.298 93.3506 112.932 94.2294 112.283 94.8781C111.634 95.5269 110.755 95.8928 109.837 95.8963H106.44V80.6843H109.837ZM83.962 90.7354H87.1536L83.962 85.3023L83.6221 84.7588L80.7725 90.7354H83.962ZM83.962 79.3272H86.201L95.301 95.3564C95.5046 95.7635 95.8445 96.1706 96.2521 96.3741C96.591 96.6464 96.9996 96.715 97.4067 96.8499C97.5421 96.9186 97.6774 96.9868 97.6774 97.1221C97.6774 97.3257 97.2703 97.3257 97.135 97.3257H89.0568C88.9204 97.3257 88.581 97.3257 88.581 97.1221C88.581 96.9868 88.6482 96.9186 88.8517 96.8499C89.1921 96.715 89.5305 96.511 89.5992 96.1039C89.7346 95.6276 89.5992 95.3574 89.3275 94.7447C88.8517 93.727 88.3098 92.7754 87.8345 91.8249H80.2265L80.1588 91.9602C80.0911 92.2325 79.6153 93.1815 79.1411 94.2018C78.6658 95.2882 78.3946 95.5594 78.5304 96.1029C78.6663 96.51 78.9375 96.7135 79.3446 96.8494C79.48 96.9181 79.6158 96.9863 79.6158 97.1211C79.6158 97.3247 79.2764 97.3247 79.0734 97.3247H75.405C75.2691 97.3247 74.8615 97.3247 74.8615 97.1211C74.8615 96.9863 74.9974 96.9176 75.1333 96.8494C75.5404 96.714 75.8803 96.6458 76.2884 96.3736C76.6273 96.1701 77.0354 95.763 77.2384 95.3559L77.7137 94.3381L82.9433 83.537L82.1973 82.2466C81.5185 81.1596 80.7725 80.4808 80.0921 80.0732C79.6851 79.8697 79.4128 79.8697 79.0052 79.7338C78.8688 79.6656 78.733 79.5974 78.8017 79.4615C78.8704 79.3257 79.0052 79.3939 79.0739 79.3257H83.9631L83.962 79.3272ZM61.5512 91.2112C63.1134 91.7536 65.015 91.889 66.5086 91.4147L72.4175 96.5084L72.8928 96.9155C72.9187 96.9422 72.9384 96.9743 72.9502 97.0095C72.9621 97.0447 72.966 97.0822 72.9614 97.1191C72.9614 97.3226 72.6215 97.3226 72.4852 97.3226H66.2378L61.5522 93.4517L57.7485 90.395V94.6063C57.8172 95.624 58.2243 96.3716 59.6501 96.8453C59.786 96.914 59.8537 96.9817 59.8537 97.117C59.8537 97.3206 59.5137 97.3206 59.3774 97.3206H51.1608C50.9572 97.3206 50.6173 97.3206 50.6173 97.117C50.6173 96.9817 50.7537 96.9135 50.8885 96.8453C52.5169 96.3029 52.7204 95.4877 52.7901 94.1992V82.4501C52.7219 81.2288 52.5184 80.3449 50.8885 79.804C50.7526 79.804 50.6173 79.6681 50.6173 79.6005C50.6173 79.3292 50.9572 79.3969 51.1608 79.3969H64.4034C65.1227 79.3938 65.8357 79.5325 66.5014 79.8049C67.1672 80.0774 67.7727 80.4783 68.2836 80.9848C68.7944 81.4913 69.2004 82.0935 69.4785 82.7569C69.7565 83.4204 69.9012 84.1321 69.9042 84.8514V84.8972C69.9093 86.3493 69.3378 87.7439 68.3151 88.7747C67.2924 89.8055 65.9022 90.3881 64.4502 90.3945H60.1249C60.3284 90.8016 60.8037 90.9379 61.2108 91.142C61.3472 91.142 61.4143 91.2112 61.5507 91.2112H61.5512ZM61.5512 89.106H62.0972C63.8625 89.106 65.357 87.2039 65.357 84.7588C65.354 82.3819 63.8599 80.4808 62.0972 80.4808H57.748V89.106H61.5512ZM38.801 80.4813H34.9306V89.1065H39.4131C41.2451 89.1065 42.6699 87.2044 42.6699 84.7593C42.6699 82.3829 41.2451 80.4813 39.4131 80.4813H38.801Z" fill="#13101E"/>
</svg>
