<svg width="168" height="168" viewBox="0 0 168 168" fill="none" xmlns="http://www.w3.org/2000/svg">
<rect width="168" height="168" rx="16" fill="#F4F4F4"/>
<path fill-rule="evenodd" clip-rule="evenodd" d="M33 67.5121H44.5577C47.3251 67.5121 50.0416 67.7169 52.7323 68.1524C55.3972 68.5629 57.9085 69.7415 60.2664 71.6375C62.4702 73.5085 64.187 75.8919 65.4172 78.7874C66.673 81.6829 67.3649 84.6557 67.4674 87.7309C67.5187 87.9359 67.5443 88.1666 67.5443 88.397C67.5443 88.6022 67.5443 88.8328 67.5443 89.0635C67.5443 89.1405 67.5443 89.2174 67.5443 89.2943C67.5443 89.3455 67.5443 89.4222 67.5443 89.5249C67.4674 92.7278 66.801 95.803 65.5453 98.8012C64.3153 101.774 62.4959 104.209 60.0869 106.13C57.9603 107.694 55.7049 108.692 53.2706 109.154C50.8618 109.641 48.3761 109.898 45.8648 110C45.4548 110 45.019 110 44.5835 110C44.1477 110 43.7122 110 43.251 110H33V67.5121ZM41.4568 102.337C41.7387 102.337 42.0464 102.337 42.3795 102.363C42.7125 102.388 43.0716 102.388 43.4302 102.388C43.5585 102.388 43.6608 102.388 43.7891 102.388C43.8913 102.388 43.9938 102.388 44.1221 102.388C44.3783 102.441 44.6091 102.465 44.8654 102.465C45.1215 102.465 45.3523 102.465 45.5571 102.465C45.9671 102.465 46.3771 102.441 46.7873 102.414C47.1973 102.414 47.6072 102.363 48.043 102.337C49.273 102.235 50.5029 102.005 51.7076 101.671C52.8864 101.312 53.9369 100.775 54.8083 100.057C56.1663 98.9044 57.1915 97.3407 57.8834 95.3932C58.5753 93.4458 58.9339 91.421 58.9597 89.3197C58.9597 89.2683 58.9597 89.2174 58.9597 89.166C58.9597 89.0891 58.9597 89.0122 58.9597 88.9097C58.9597 88.8328 58.9597 88.7558 58.9597 88.6791C58.9597 88.6278 58.9597 88.5508 58.9597 88.4483C58.9339 86.3726 58.5753 84.348 57.9089 82.4261C57.2428 80.4785 56.2432 78.8897 54.9361 77.6597C53.9881 76.7631 52.8862 76.1476 51.6306 75.8146C50.4007 75.4815 49.1191 75.3021 47.7864 75.2507C47.5047 75.1996 47.197 75.1738 46.9151 75.1738C46.6334 75.1738 46.3257 75.1738 46.0438 75.1738H41.4568V102.337ZM91.3507 109.308L88.7627 106.258C87.6606 107.284 86.3795 108.13 84.9443 108.77C83.5093 109.436 82.023 109.821 80.5365 109.949C80.3826 109.974 80.229 110 80.0751 110C79.9213 110 79.7676 110 79.614 110C79.2807 110 78.9732 109.974 78.6402 109.949C78.3071 109.923 77.9996 109.872 77.6666 109.847C77.0256 109.719 76.3853 109.539 75.7447 109.308C75.1039 109.078 74.5145 108.796 73.9249 108.437C72.8741 107.719 72.0544 106.771 71.4136 105.618C70.7731 104.439 70.3886 103.235 70.2603 102.005C70.2348 101.851 70.2348 101.698 70.2348 101.569C70.2348 101.441 70.2348 101.313 70.2348 101.185C70.2348 101.083 70.2348 100.98 70.2348 100.852C70.2603 100.724 70.2603 100.595 70.2603 100.467C70.2603 100.416 70.2861 100.39 70.2861 100.365C70.3115 100.313 70.3115 100.288 70.3115 100.211C70.3115 100.16 70.337 100.083 70.337 99.9807C70.3628 99.9035 70.3628 99.8264 70.3628 99.7752C70.6959 97.9561 71.4645 96.4444 72.6947 95.2391C73.9246 94.035 75.2831 92.9842 76.7436 92.0364C75.8212 91.0628 75.0779 90.012 74.4632 88.8841C73.8482 87.7825 73.5405 86.6036 73.5405 85.4248C73.5405 85.1943 73.5405 84.9635 73.5916 84.7071C73.6172 84.4768 73.643 84.2202 73.6688 84.0154C73.7199 83.836 73.7455 83.6824 73.7966 83.5283C73.8479 83.3491 73.8991 83.1955 73.9246 83.0414C74.4374 81.427 75.4368 80.274 76.8975 79.5307C78.3585 78.7876 79.8957 78.4032 81.5614 78.4032C83.6372 78.4032 85.5335 78.9668 87.2506 80.0945C88.9674 81.1962 89.839 82.8619 89.839 85.0144V85.5526C89.7107 86.9111 89.1985 88.0895 88.3269 89.0635C87.4556 90.0371 86.5075 90.9085 85.5081 91.7029C85.2773 91.8312 85.0468 91.9595 84.8416 92.1387C84.6368 92.2923 84.4316 92.4462 84.2266 92.5742L89.4286 98.648C89.7107 98.3914 89.9671 98.1351 90.223 97.8785C90.4796 97.6219 90.7101 97.3667 90.9409 97.0841C91.4787 96.5723 91.9912 96.0333 92.5042 95.4953C93.0166 94.9312 93.5035 94.3934 93.9649 93.8293L97.4244 97.4947C97.0398 97.9045 96.63 98.314 96.2454 98.7238C95.8612 99.1347 95.4765 99.5442 95.0924 99.98C94.6566 100.39 94.2468 100.799 93.8622 101.21C93.478 101.62 93.0933 102.029 92.7091 102.44L98.3983 109.307L91.3507 109.308ZM76.59 102.928C76.9231 103.363 77.2566 103.722 77.5641 104.003C77.8969 104.311 78.2302 104.516 78.5888 104.696C78.9221 104.875 79.2296 105.028 79.5626 105.106C79.8957 105.183 80.2032 105.234 80.5362 105.234C81.2284 105.234 81.8687 105.081 82.4581 104.824C83.0478 104.541 83.6114 104.209 84.0983 103.85C84.5338 103.543 85.0463 103.107 85.5846 102.543L79.7674 95.5989C79.6391 95.6749 79.5113 95.7781 79.3574 95.8543C79.2296 95.9315 79.1269 96.0335 79.0244 96.1109C78.4094 96.6487 77.82 97.2391 77.2817 97.9052C76.7181 98.5713 76.3337 99.2637 76.1029 99.9809C76.0515 100.16 76.0004 100.34 75.9746 100.519C75.9234 100.698 75.9234 100.903 75.9234 101.083C75.9234 101.415 75.9746 101.723 76.1026 102.03C76.2307 102.338 76.4108 102.645 76.59 102.928ZM81.2539 89.6018C81.3051 89.576 81.3309 89.5505 81.3567 89.5249C81.4078 89.4991 81.4331 89.4991 81.5101 89.448C81.5359 89.4222 81.587 89.3966 81.6128 89.3455C81.6384 89.3199 81.6639 89.3199 81.7153 89.3199C82.3558 88.8588 82.9453 88.3719 83.5091 87.885C84.0469 87.3722 84.406 86.7061 84.5852 85.9117V85.3225C84.5852 84.4768 84.2779 83.7849 83.6883 83.2724C83.1247 82.7597 82.4837 82.4522 81.792 82.3497C81.7406 82.3497 81.6637 82.3497 81.6128 82.3497C81.5359 82.3497 81.4845 82.3497 81.4078 82.3497C81.3822 82.3497 81.3309 82.3497 81.2797 82.3497C81.2539 82.3497 81.177 82.3497 81.1257 82.3497C80.6134 82.401 80.1009 82.6318 79.6393 83.0158C79.1782 83.3746 78.8963 83.9385 78.8452 84.6815C78.8452 84.7071 78.8196 84.7587 78.8196 84.8098C78.7938 84.8612 78.7938 84.9121 78.7938 84.989C78.7938 85.0146 78.7682 85.0404 78.7682 85.0913C78.7427 85.1427 78.7427 85.194 78.7427 85.2709C78.7427 85.9115 78.9219 86.5267 79.2805 87.0645C79.6391 87.6284 80.0238 88.1666 80.4337 88.6791C80.6129 88.8328 80.7412 88.9866 80.8695 89.1402C80.9978 89.2943 81.1257 89.448 81.2539 89.6018ZM141.706 86.8598V88.2691C141.706 92.1129 141.065 95.7007 139.784 99.0575C138.502 102.414 136.043 105.131 132.327 107.207C131.148 107.975 129.867 108.539 128.432 108.975C127.022 109.385 125.613 109.692 124.203 109.871C123.69 109.897 123.204 109.948 122.743 109.973C122.255 109.973 121.795 109.999 121.334 109.999C121.052 109.999 120.795 109.999 120.514 109.999C120.232 109.999 119.975 109.973 119.693 109.922C116.26 109.718 112.979 108.769 109.776 107.103C106.599 105.463 104.01 103.234 102.063 100.44C101.089 98.9548 100.32 97.34 99.7307 95.6491C99.1418 93.9571 98.7571 92.2405 98.5524 90.498C98.5268 90.1645 98.4752 89.7806 98.4496 89.4217C98.4496 89.0375 98.4241 88.6531 98.4241 88.2687C98.4241 84.1939 99.4748 80.3244 101.602 76.6345C103.729 72.9442 106.727 70.151 110.597 68.2547C111.416 67.8442 112.262 67.5116 113.134 67.2551C114.005 66.9734 114.876 66.7426 115.799 66.512C116.67 66.3328 117.516 66.2045 118.387 66.1276C119.258 66.0258 120.103 66 120.923 66C121 66 121.102 66 121.231 66C121.333 66 121.436 66 121.538 66C124.87 66.0769 128.098 66.8713 131.251 68.3321C134.377 69.8182 137.093 71.8683 139.374 74.4821L133.224 78.9666C131.532 77.3009 129.764 76.0198 127.868 75.0971C125.971 74.2002 123.947 73.7388 121.82 73.7388C121.128 73.7388 120.411 73.7902 119.693 73.8671C118.95 73.9694 118.207 74.0974 117.438 74.2771C114.286 75.2507 111.928 77.0708 110.314 79.7354C108.725 82.4261 107.931 85.2451 107.931 88.2689C107.931 88.4737 107.931 88.7045 107.956 88.9608C107.982 89.1911 108.033 89.4219 108.059 89.6527C108.059 89.781 108.084 89.9093 108.11 90.0116C108.135 90.1138 108.135 90.2421 108.135 90.3702C108.187 90.4729 108.212 90.5754 108.238 90.7037C108.263 90.8316 108.263 90.9598 108.263 91.0365C108.827 94.3425 110.237 96.956 112.543 98.8274C114.85 100.698 117.335 101.851 120.025 102.235C120.385 102.337 120.795 102.389 121.205 102.415C121.615 102.441 121.999 102.441 122.358 102.441C124.921 102.441 127.175 101.748 129.2 100.39C131.199 99.0066 132.198 97.0592 132.198 94.4968L132.326 94.2142H121.871V86.8598H141.706Z" fill="#13101E"/>
</svg>
